<svg width="30" height="27" viewBox="0 0 30 27" fill="none" xmlns="http://www.w3.org/2000/svg">
<path d="M26.3706 18.0177C26.2043 17.8846 25.9976 17.8121 25.7846 17.8121C25.5716 17.8121 25.365 17.8846 25.1987 18.0177C25.0885 18.1068 22.5034 20.2068 22.5034 22.9689C22.5034 23.8391 22.8491 24.6737 23.4644 25.2891C24.0798 25.9044 24.9144 26.2501 25.7846 26.2501C26.6549 26.2501 27.4895 25.9044 28.1048 25.2891C28.7202 24.6737 29.0659 23.8391 29.0659 22.9689C29.0659 20.2068 26.4807 18.1068 26.3706 18.0177ZM25.7846 24.3751C25.4117 24.3751 25.054 24.227 24.7903 23.9633C24.5265 23.6995 24.3784 23.3419 24.3784 22.9689C24.3784 21.7759 25.1987 20.6802 25.7846 20.0474C26.3706 20.6826 27.1909 21.7818 27.1909 22.9689C27.1909 23.3419 27.0427 23.6995 26.779 23.9633C26.5153 24.227 26.1576 24.3751 25.7846 24.3751ZM25.9792 12.8709L13.3827 0.27437C13.2069 0.0986877 12.9685 0 12.72 0C12.4715 0 12.2331 0.0986877 12.0573 0.27437L7.29831 5.03921L4.41549 2.14937C4.23958 1.97361 4.00105 1.87493 3.75238 1.87504C3.50371 1.87515 3.26527 1.97404 3.08952 2.14996C2.91376 2.32587 2.81508 2.5644 2.81519 2.81307C2.8153 3.06173 2.91419 3.30017 3.0901 3.47593L5.97291 6.35874L0.823696 11.5044C0.29629 12.0319 0 12.7472 0 13.4931C0 14.239 0.29629 14.9544 0.823696 15.4818L10.7717 25.4298C11.2992 25.9572 12.0145 26.2535 12.7604 26.2535C13.5063 26.2535 14.2216 25.9572 14.7491 25.4298L25.9792 14.1998C26.0667 14.1126 26.1361 14.0091 26.1835 13.8951C26.2309 13.7811 26.2553 13.6588 26.2553 13.5353C26.2553 13.4118 26.2309 13.2896 26.1835 13.1755C26.1361 13.0615 26.0667 12.958 25.9792 12.8709ZM13.4225 24.1009C13.2467 24.2766 13.0084 24.3753 12.7598 24.3753C12.5113 24.3753 12.2729 24.2766 12.0971 24.1009L2.1526 14.1564C1.97692 13.9806 1.87823 13.7422 1.87823 13.4937C1.87823 13.2452 1.97692 13.0068 2.1526 12.831L7.29831 7.68413L10.7108 11.0966C10.3363 11.7901 10.2239 12.5952 10.3942 13.3648C10.5645 14.1343 11.0061 14.8169 11.6382 15.2876C12.2704 15.7583 13.0508 15.9858 13.8369 15.9284C14.623 15.871 15.3621 15.5325 15.9192 14.975C16.4762 14.4174 16.814 13.678 16.8707 12.8919C16.9274 12.1058 16.6992 11.3255 16.228 10.6938C15.7567 10.0621 15.0738 9.62107 14.3041 9.45145C13.5344 9.28184 12.7294 9.39494 12.0362 9.77007L8.62487 6.35874L12.7264 2.26304L23.9964 13.533L13.4225 24.1009ZM13.5971 11.2501C13.9225 11.2507 14.2376 11.364 14.4887 11.5708C14.7399 11.7776 14.9116 12.0651 14.9745 12.3843C15.0375 12.7035 14.9878 13.0347 14.834 13.3214C14.6801 13.608 14.4316 13.8325 14.1308 13.9565C13.83 14.0805 13.4955 14.0964 13.1844 14.0014C12.8732 13.9064 12.6046 13.7065 12.4243 13.4357C12.244 13.1648 12.1632 12.8399 12.1956 12.5162C12.2281 12.1924 12.3718 11.89 12.6022 11.6603C12.8664 11.3971 13.2242 11.2495 13.5971 11.2501Z" fill="#F6D167"/>
</svg>
