<svg width="214" height="38" viewBox="0 0 214 38" fill="none" xmlns="http://www.w3.org/2000/svg">
<path d="M10.48 19.128C11.888 19.128 12.9013 18.792 13.52 18.12C14.1387 17.448 14.448 16.5093 14.448 15.304C14.448 14.7707 14.368 14.2853 14.208 13.848C14.048 13.4107 13.8027 13.0373 13.472 12.728C13.152 12.408 12.7413 12.1627 12.24 11.992C11.7493 11.8213 11.1627 11.736 10.48 11.736H7.664V19.128H10.48ZM10.48 7.688C12.1227 7.688 13.5307 7.88533 14.704 8.28C15.888 8.664 16.8587 9.19733 17.616 9.88C18.384 10.5627 18.9493 11.368 19.312 12.296C19.6747 13.224 19.856 14.2267 19.856 15.304C19.856 16.4667 19.6693 17.5333 19.296 18.504C18.9227 19.4747 18.352 20.3067 17.584 21C16.816 21.6933 15.84 22.2373 14.656 22.632C13.4827 23.016 12.0907 23.208 10.48 23.208H7.664V31H2.256V7.688H10.48Z" fill="#F6D167"/>
<path d="M38.3118 24.968C38.4398 24.968 38.5678 24.9947 38.6958 25.048C38.8238 25.0907 38.9464 25.1707 39.0638 25.288L41.2078 27.544C40.2691 28.7707 39.0904 29.6987 37.6718 30.328C36.2638 30.9467 34.5944 31.256 32.6638 31.256C30.8931 31.256 29.3038 30.9573 27.8958 30.36C26.4984 29.752 25.3091 28.92 24.3278 27.864C23.3571 26.7973 22.6104 25.5387 22.0878 24.088C21.5651 22.6267 21.3038 21.0427 21.3038 19.336C21.3038 17.5973 21.5864 16.0027 22.1518 14.552C22.7171 13.0907 23.5118 11.832 24.5358 10.776C25.5598 9.72 26.7864 8.89867 28.2158 8.312C29.6451 7.72533 31.2184 7.432 32.9358 7.432C33.8104 7.432 34.6318 7.512 35.3998 7.672C36.1784 7.82133 36.9038 8.03466 37.5758 8.312C38.2478 8.57867 38.8664 8.904 39.4318 9.288C39.9971 9.672 40.4984 10.088 40.9358 10.536L39.1118 12.984C38.9944 13.1333 38.8558 13.272 38.6958 13.4C38.5358 13.5173 38.3118 13.576 38.0238 13.576C37.8318 13.576 37.6504 13.5333 37.4798 13.448C37.3091 13.3627 37.1278 13.2613 36.9358 13.144C36.7438 13.016 36.5304 12.8827 36.2958 12.744C36.0718 12.5947 35.7998 12.4613 35.4798 12.344C35.1704 12.216 34.8024 12.1093 34.3758 12.024C33.9598 11.9387 33.4691 11.896 32.9038 11.896C32.0078 11.896 31.1864 12.0613 30.4398 12.392C29.7038 12.7227 29.0638 13.208 28.5198 13.848C27.9864 14.4773 27.5704 15.256 27.2718 16.184C26.9838 17.1013 26.8398 18.152 26.8398 19.336C26.8398 20.5307 26.9998 21.592 27.3198 22.52C27.6504 23.448 28.0931 24.232 28.6478 24.872C29.2131 25.5013 29.8691 25.9813 30.6158 26.312C31.3624 26.6427 32.1624 26.808 33.0158 26.808C33.5064 26.808 33.9544 26.7867 34.3598 26.744C34.7651 26.6907 35.1438 26.6107 35.4958 26.504C35.8478 26.3867 36.1784 26.2373 36.4878 26.056C36.7971 25.864 37.1118 25.624 37.4318 25.336C37.5598 25.2293 37.6984 25.144 37.8478 25.08C37.9971 25.0053 38.1518 24.968 38.3118 24.968Z" fill="#2D3047"/>
<line x1="53.5" y1="11" x2="53.5" y2="27" stroke="black"/>
<path d="M70.325 20.828C71.007 20.828 71.6193 20.7327 72.162 20.542C72.7047 20.3513 73.163 20.0873 73.537 19.75C73.9183 19.4127 74.208 19.0167 74.406 18.562C74.6113 18.1 74.714 17.5977 74.714 17.055C74.714 15.8597 74.3473 14.9393 73.614 14.294C72.8807 13.6487 71.7843 13.326 70.325 13.326H67.432V20.828H70.325ZM70.325 12.435C72.151 12.435 73.526 12.8347 74.45 13.634C75.3813 14.4333 75.847 15.5737 75.847 17.055C75.847 17.737 75.7187 18.364 75.462 18.936C75.2053 19.508 74.8387 20.003 74.362 20.421C73.8853 20.8317 73.306 21.1543 72.624 21.389C71.942 21.6163 71.1757 21.73 70.325 21.73H67.432V28H66.299V12.435H70.325ZM84.2845 22.709C83.2432 22.7457 82.3448 22.83 81.5895 22.962C80.8415 23.0867 80.2218 23.259 79.7305 23.479C79.2465 23.699 78.8872 23.963 78.6525 24.271C78.4178 24.5717 78.3005 24.9163 78.3005 25.305C78.3005 25.6717 78.3592 25.9907 78.4765 26.262C78.6012 26.526 78.7625 26.746 78.9605 26.922C79.1658 27.0907 79.4005 27.2153 79.6645 27.296C79.9285 27.3767 80.2035 27.417 80.4895 27.417C80.9148 27.417 81.3035 27.373 81.6555 27.285C82.0148 27.1897 82.3448 27.0613 82.6455 26.9C82.9535 26.7313 83.2395 26.5333 83.5035 26.306C83.7675 26.0787 84.0278 25.833 84.2845 25.569V22.709ZM77.8495 18.606C78.4215 18.034 79.0228 17.6013 79.6535 17.308C80.2842 17.0147 80.9992 16.868 81.7985 16.868C82.3852 16.868 82.8985 16.9633 83.3385 17.154C83.7785 17.3373 84.1415 17.605 84.4275 17.957C84.7208 18.3017 84.9408 18.7233 85.0875 19.222C85.2342 19.7133 85.3075 20.2633 85.3075 20.872V28H84.8895C84.6695 28 84.5338 27.8973 84.4825 27.692L84.3285 26.284C84.0278 26.5773 83.7272 26.8413 83.4265 27.076C83.1332 27.3107 82.8252 27.5087 82.5025 27.67C82.1798 27.8313 81.8315 27.956 81.4575 28.044C81.0835 28.132 80.6728 28.176 80.2255 28.176C79.8515 28.176 79.4885 28.121 79.1365 28.011C78.7845 27.901 78.4692 27.7323 78.1905 27.505C77.9192 27.2777 77.6992 26.988 77.5305 26.636C77.3692 26.2767 77.2885 25.8477 77.2885 25.349C77.2885 24.887 77.4205 24.458 77.6845 24.062C77.9485 23.666 78.3628 23.3213 78.9275 23.028C79.4922 22.7347 80.2145 22.5 81.0945 22.324C81.9818 22.148 83.0452 22.0453 84.2845 22.016V20.872C84.2845 19.86 84.0645 19.0827 83.6245 18.54C83.1918 17.99 82.5465 17.715 81.6885 17.715C81.1605 17.715 80.7095 17.7883 80.3355 17.935C79.9688 18.0817 79.6572 18.243 79.4005 18.419C79.1438 18.595 78.9348 18.7563 78.7735 18.903C78.6122 19.0497 78.4765 19.123 78.3665 19.123C78.2858 19.123 78.2198 19.1047 78.1685 19.068C78.1172 19.0313 78.0732 18.9837 78.0365 18.925L77.8495 18.606ZM89.9798 17.055V28H88.9348V17.055H89.9798ZM90.4308 13.282C90.4308 13.414 90.4014 13.5387 90.3428 13.656C90.2914 13.766 90.2218 13.865 90.1338 13.953C90.0458 14.041 89.9431 14.1107 89.8258 14.162C89.7084 14.2133 89.5838 14.239 89.4518 14.239C89.3198 14.239 89.1951 14.2133 89.0778 14.162C88.9604 14.1107 88.8578 14.041 88.7698 13.953C88.6818 13.865 88.6121 13.766 88.5608 13.656C88.5094 13.5387 88.4838 13.414 88.4838 13.282C88.4838 13.15 88.5094 13.0253 88.5608 12.908C88.6121 12.7833 88.6818 12.677 88.7698 12.589C88.8578 12.501 88.9604 12.4313 89.0778 12.38C89.1951 12.3287 89.3198 12.303 89.4518 12.303C89.5838 12.303 89.7084 12.3287 89.8258 12.38C89.9431 12.4313 90.0458 12.501 90.1338 12.589C90.2218 12.677 90.2914 12.7833 90.3428 12.908C90.4014 13.0253 90.4308 13.15 90.4308 13.282ZM94.7132 18.969C95.2192 18.3383 95.8022 17.8323 96.4622 17.451C97.1295 17.0697 97.8702 16.879 98.6842 16.879C99.2855 16.879 99.8135 16.9743 100.268 17.165C100.73 17.3557 101.112 17.6307 101.412 17.99C101.713 18.3493 101.94 18.782 102.094 19.288C102.248 19.794 102.325 20.366 102.325 21.004V28H101.269V21.004C101.269 19.9773 101.035 19.1743 100.565 18.595C100.096 18.0083 99.3809 17.715 98.4202 17.715C97.7089 17.715 97.0415 17.8983 96.4182 18.265C95.8022 18.6243 95.2522 19.1267 94.7682 19.772V28H93.7122V17.055H94.2952C94.4785 17.055 94.5849 17.1467 94.6142 17.33L94.7132 18.969ZM108.65 28.176C107.909 28.176 107.33 27.9707 106.912 27.56C106.501 27.1493 106.296 26.515 106.296 25.657V18.177H104.723C104.642 18.177 104.576 18.155 104.525 18.111C104.473 18.067 104.448 18.0047 104.448 17.924V17.517L106.318 17.385L106.582 13.469C106.596 13.403 106.626 13.3443 106.67 13.293C106.714 13.2417 106.776 13.216 106.857 13.216H107.352V17.396H110.806V18.177H107.352V25.602C107.352 25.9027 107.388 26.163 107.462 26.383C107.542 26.5957 107.649 26.7717 107.781 26.911C107.92 27.0503 108.081 27.153 108.265 27.219C108.448 27.285 108.646 27.318 108.859 27.318C109.123 27.318 109.35 27.2813 109.541 27.208C109.731 27.1273 109.896 27.043 110.036 26.955C110.175 26.8597 110.289 26.7753 110.377 26.702C110.465 26.6213 110.534 26.581 110.586 26.581C110.644 26.581 110.703 26.6177 110.762 26.691L111.048 27.153C110.769 27.461 110.413 27.7103 109.981 27.901C109.555 28.0843 109.112 28.176 108.65 28.176Z" fill="#F6D167"/>
<path d="M130.897 25.382C130.971 25.382 131.033 25.4077 131.084 25.459L131.524 25.932C131.202 26.2767 130.85 26.5883 130.468 26.867C130.094 27.1383 129.68 27.373 129.225 27.571C128.778 27.7617 128.283 27.9083 127.74 28.011C127.205 28.121 126.615 28.176 125.969 28.176C124.891 28.176 123.901 27.989 122.999 27.615C122.105 27.2337 121.335 26.6983 120.689 26.009C120.044 25.3123 119.542 24.4727 119.182 23.49C118.83 22.5073 118.654 21.4147 118.654 20.212C118.654 19.0313 118.838 17.9533 119.204 16.978C119.571 16.0027 120.084 15.1667 120.744 14.47C121.404 13.766 122.196 13.2233 123.12 12.842C124.044 12.4533 125.064 12.259 126.178 12.259C127.242 12.259 128.184 12.424 129.005 12.754C129.827 13.084 130.575 13.5497 131.249 14.151L130.908 14.646C130.85 14.734 130.758 14.778 130.633 14.778C130.545 14.778 130.402 14.6973 130.204 14.536C130.006 14.3747 129.731 14.1987 129.379 14.008C129.027 13.81 128.587 13.6303 128.059 13.469C127.539 13.3077 126.912 13.227 126.178 13.227C125.24 13.227 124.378 13.3883 123.593 13.711C122.816 14.0337 122.145 14.4957 121.58 15.097C121.023 15.6983 120.587 16.4317 120.271 17.297C119.956 18.1623 119.798 19.134 119.798 20.212C119.798 21.312 119.956 22.2947 120.271 23.16C120.594 24.0253 121.034 24.7587 121.591 25.36C122.149 25.954 122.805 26.4123 123.56 26.735C124.323 27.0503 125.144 27.208 126.024 27.208C126.582 27.208 127.077 27.1713 127.509 27.098C127.949 27.0247 128.353 26.9147 128.719 26.768C129.086 26.6213 129.427 26.4417 129.742 26.229C130.058 26.0163 130.369 25.767 130.677 25.481C130.714 25.4517 130.751 25.4297 130.787 25.415C130.824 25.393 130.861 25.382 130.897 25.382ZM140.165 22.709C139.124 22.7457 138.226 22.83 137.47 22.962C136.722 23.0867 136.103 23.259 135.611 23.479C135.127 23.699 134.768 23.963 134.533 24.271C134.299 24.5717 134.181 24.9163 134.181 25.305C134.181 25.6717 134.24 25.9907 134.357 26.262C134.482 26.526 134.643 26.746 134.841 26.922C135.047 27.0907 135.281 27.2153 135.545 27.296C135.809 27.3767 136.084 27.417 136.37 27.417C136.796 27.417 137.184 27.373 137.536 27.285C137.896 27.1897 138.226 27.0613 138.526 26.9C138.834 26.7313 139.12 26.5333 139.384 26.306C139.648 26.0787 139.909 25.833 140.165 25.569V22.709ZM133.73 18.606C134.302 18.034 134.904 17.6013 135.534 17.308C136.165 17.0147 136.88 16.868 137.679 16.868C138.266 16.868 138.779 16.9633 139.219 17.154C139.659 17.3373 140.022 17.605 140.308 17.957C140.602 18.3017 140.822 18.7233 140.968 19.222C141.115 19.7133 141.188 20.2633 141.188 20.872V28H140.77C140.55 28 140.415 27.8973 140.363 27.692L140.209 26.284C139.909 26.5773 139.608 26.8413 139.307 27.076C139.014 27.3107 138.706 27.5087 138.383 27.67C138.061 27.8313 137.712 27.956 137.338 28.044C136.964 28.132 136.554 28.176 136.106 28.176C135.732 28.176 135.369 28.121 135.017 28.011C134.665 27.901 134.35 27.7323 134.071 27.505C133.8 27.2777 133.58 26.988 133.411 26.636C133.25 26.2767 133.169 25.8477 133.169 25.349C133.169 24.887 133.301 24.458 133.565 24.062C133.829 23.666 134.244 23.3213 134.808 23.028C135.373 22.7347 136.095 22.5 136.975 22.324C137.863 22.148 138.926 22.0453 140.165 22.016V20.872C140.165 19.86 139.945 19.0827 139.505 18.54C139.073 17.99 138.427 17.715 137.569 17.715C137.041 17.715 136.59 17.7883 136.216 17.935C135.85 18.0817 135.538 18.243 135.281 18.419C135.025 18.595 134.816 18.7563 134.654 18.903C134.493 19.0497 134.357 19.123 134.247 19.123C134.167 19.123 134.101 19.1047 134.049 19.068C133.998 19.0313 133.954 18.9837 133.917 18.925L133.73 18.606ZM145.85 11.995V28H144.794V11.995H145.85ZM156.909 18.518C156.872 18.5547 156.836 18.5877 156.799 18.617C156.77 18.639 156.726 18.65 156.667 18.65C156.594 18.65 156.495 18.6023 156.37 18.507C156.245 18.4043 156.077 18.2943 155.864 18.177C155.651 18.0597 155.384 17.9533 155.061 17.858C154.746 17.7553 154.361 17.704 153.906 17.704C153.275 17.704 152.714 17.8177 152.223 18.045C151.739 18.265 151.328 18.584 150.991 19.002C150.654 19.42 150.397 19.926 150.221 20.52C150.052 21.114 149.968 21.7813 149.968 22.522C149.968 23.292 150.056 23.974 150.232 24.568C150.415 25.162 150.672 25.6643 151.002 26.075C151.332 26.4783 151.732 26.7863 152.201 26.999C152.67 27.2117 153.191 27.318 153.763 27.318C154.291 27.318 154.731 27.2557 155.083 27.131C155.442 27.0063 155.736 26.8707 155.963 26.724C156.198 26.5773 156.381 26.4417 156.513 26.317C156.645 26.1923 156.755 26.13 156.843 26.13C156.931 26.13 157.004 26.1667 157.063 26.24L157.338 26.592C157.169 26.812 156.957 27.0173 156.7 27.208C156.443 27.3987 156.154 27.5637 155.831 27.703C155.508 27.8423 155.156 27.9487 154.775 28.022C154.401 28.1027 154.009 28.143 153.598 28.143C152.901 28.143 152.263 28.0183 151.684 27.769C151.112 27.5123 150.617 27.1457 150.199 26.669C149.788 26.185 149.466 25.5947 149.231 24.898C149.004 24.2013 148.89 23.4093 148.89 22.522C148.89 21.686 149 20.9233 149.22 20.234C149.44 19.5447 149.763 18.9507 150.188 18.452C150.613 17.9533 151.13 17.5683 151.739 17.297C152.355 17.0183 153.059 16.879 153.851 16.879C154.562 16.879 155.193 16.9927 155.743 17.22C156.293 17.4473 156.773 17.7553 157.184 18.144L156.909 18.518ZM168.419 17.055V28H167.836C167.653 28 167.546 27.9047 167.517 27.714L167.418 26.086C166.912 26.7167 166.325 27.2227 165.658 27.604C164.998 27.9853 164.261 28.176 163.447 28.176C162.838 28.176 162.307 28.0807 161.852 27.89C161.397 27.6993 161.02 27.4243 160.719 27.065C160.418 26.7057 160.191 26.273 160.037 25.767C159.883 25.261 159.806 24.689 159.806 24.051V17.055H160.862V24.051C160.862 25.0777 161.097 25.8843 161.566 26.471C162.035 27.0503 162.75 27.34 163.711 27.34C164.422 27.34 165.086 27.1603 165.702 26.801C166.325 26.4343 166.879 25.9283 167.363 25.283V17.055H168.419ZM173.178 11.995V28H172.122V11.995H173.178ZM183.005 22.709C181.964 22.7457 181.066 22.83 180.31 22.962C179.562 23.0867 178.943 23.259 178.451 23.479C177.967 23.699 177.608 23.963 177.373 24.271C177.139 24.5717 177.021 24.9163 177.021 25.305C177.021 25.6717 177.08 25.9907 177.197 26.262C177.322 26.526 177.483 26.746 177.681 26.922C177.887 27.0907 178.121 27.2153 178.385 27.296C178.649 27.3767 178.924 27.417 179.21 27.417C179.636 27.417 180.024 27.373 180.376 27.285C180.736 27.1897 181.066 27.0613 181.366 26.9C181.674 26.7313 181.96 26.5333 182.224 26.306C182.488 26.0787 182.749 25.833 183.005 25.569V22.709ZM176.57 18.606C177.142 18.034 177.744 17.6013 178.374 17.308C179.005 17.0147 179.72 16.868 180.519 16.868C181.106 16.868 181.619 16.9633 182.059 17.154C182.499 17.3373 182.862 17.605 183.148 17.957C183.442 18.3017 183.662 18.7233 183.808 19.222C183.955 19.7133 184.028 20.2633 184.028 20.872V28H183.61C183.39 28 183.255 27.8973 183.203 27.692L183.049 26.284C182.749 26.5773 182.448 26.8413 182.147 27.076C181.854 27.3107 181.546 27.5087 181.223 27.67C180.901 27.8313 180.552 27.956 180.178 28.044C179.804 28.132 179.394 28.176 178.946 28.176C178.572 28.176 178.209 28.121 177.857 28.011C177.505 27.901 177.19 27.7323 176.911 27.505C176.64 27.2777 176.42 26.988 176.251 26.636C176.09 26.2767 176.009 25.8477 176.009 25.349C176.009 24.887 176.141 24.458 176.405 24.062C176.669 23.666 177.084 23.3213 177.648 23.028C178.213 22.7347 178.935 22.5 179.815 22.324C180.703 22.148 181.766 22.0453 183.005 22.016V20.872C183.005 19.86 182.785 19.0827 182.345 18.54C181.913 17.99 181.267 17.715 180.409 17.715C179.881 17.715 179.43 17.7883 179.056 17.935C178.69 18.0817 178.378 18.243 178.121 18.419C177.865 18.595 177.656 18.7563 177.494 18.903C177.333 19.0497 177.197 19.123 177.087 19.123C177.007 19.123 176.941 19.1047 176.889 19.068C176.838 19.0313 176.794 18.9837 176.757 18.925L176.57 18.606ZM190.398 28.176C189.657 28.176 189.078 27.9707 188.66 27.56C188.249 27.1493 188.044 26.515 188.044 25.657V18.177H186.471C186.39 18.177 186.324 18.155 186.273 18.111C186.221 18.067 186.196 18.0047 186.196 17.924V17.517L188.066 17.385L188.33 13.469C188.344 13.403 188.374 13.3443 188.418 13.293C188.462 13.2417 188.524 13.216 188.605 13.216H189.1V17.396H192.554V18.177H189.1V25.602C189.1 25.9027 189.136 26.163 189.21 26.383C189.29 26.5957 189.397 26.7717 189.529 26.911C189.668 27.0503 189.829 27.153 190.013 27.219C190.196 27.285 190.394 27.318 190.607 27.318C190.871 27.318 191.098 27.2813 191.289 27.208C191.479 27.1273 191.644 27.043 191.784 26.955C191.923 26.8597 192.037 26.7753 192.125 26.702C192.213 26.6213 192.282 26.581 192.334 26.581C192.392 26.581 192.451 26.6177 192.51 26.691L192.796 27.153C192.517 27.461 192.161 27.7103 191.729 27.901C191.303 28.0843 190.86 28.176 190.398 28.176ZM199.238 16.879C200.022 16.879 200.723 17.0147 201.339 17.286C201.962 17.55 202.486 17.9277 202.912 18.419C203.337 18.9103 203.66 19.5043 203.88 20.201C204.107 20.8903 204.221 21.664 204.221 22.522C204.221 23.38 204.107 24.1537 203.88 24.843C203.66 25.5323 203.337 26.1227 202.912 26.614C202.486 27.1053 201.962 27.483 201.339 27.747C200.723 28.011 200.022 28.143 199.238 28.143C198.453 28.143 197.749 28.011 197.126 27.747C196.51 27.483 195.985 27.1053 195.553 26.614C195.127 26.1227 194.801 25.5323 194.574 24.843C194.354 24.1537 194.244 23.38 194.244 22.522C194.244 21.664 194.354 20.8903 194.574 20.201C194.801 19.5043 195.127 18.9103 195.553 18.419C195.985 17.9277 196.51 17.55 197.126 17.286C197.749 17.0147 198.453 16.879 199.238 16.879ZM199.238 27.318C199.89 27.318 200.459 27.208 200.943 26.988C201.434 26.7607 201.841 26.438 202.164 26.02C202.494 25.602 202.739 25.0997 202.901 24.513C203.062 23.919 203.143 23.2553 203.143 22.522C203.143 21.796 203.062 21.136 202.901 20.542C202.739 19.948 202.494 19.442 202.164 19.024C201.841 18.5987 201.434 18.2723 200.943 18.045C200.459 17.8177 199.89 17.704 199.238 17.704C198.585 17.704 198.013 17.8177 197.522 18.045C197.038 18.2723 196.631 18.5987 196.301 19.024C195.978 19.442 195.732 19.948 195.564 20.542C195.402 21.136 195.322 21.796 195.322 22.522C195.322 23.2553 195.402 23.919 195.564 24.513C195.732 25.0997 195.978 25.602 196.301 26.02C196.631 26.438 197.038 26.7607 197.522 26.988C198.013 27.208 198.585 27.318 199.238 27.318ZM208.172 19.695C208.341 19.2477 208.532 18.8517 208.744 18.507C208.964 18.155 209.214 17.858 209.492 17.616C209.778 17.374 210.094 17.1907 210.438 17.066C210.79 16.934 211.179 16.868 211.604 16.868C211.832 16.868 212.055 16.89 212.275 16.934C212.495 16.9707 212.69 17.0403 212.858 17.143L212.77 17.869C212.734 17.9863 212.664 18.045 212.561 18.045C212.473 18.045 212.338 18.0193 212.154 17.968C211.978 17.9167 211.744 17.891 211.45 17.891C211.025 17.891 210.647 17.957 210.317 18.089C209.995 18.2137 209.701 18.4043 209.437 18.661C209.181 18.9177 208.953 19.2367 208.755 19.618C208.565 19.992 208.389 20.4247 208.227 20.916V28H207.171V17.055H207.732C207.857 17.055 207.945 17.0807 207.996 17.132C208.048 17.1833 208.081 17.2713 208.095 17.396L208.172 19.695Z" fill="#2D3047"/>
</svg>
